<svg width="15" height="15" viewBox="0 0 15 15" fill="none" xmlns="http://www.w3.org/2000/svg">
<g clip-path="url(#clip0_369_117)">
<path d="M5.72077 3.38C6.51265 1.96 6.90827 1.25 7.50015 1.25C8.09202 1.25 8.48765 1.96 9.27952 3.38L9.48452 3.7475C9.70952 4.15125 9.82202 4.35312 9.99702 4.48625C10.172 4.61937 10.3908 4.66875 10.8283 4.7675L11.2258 4.8575C12.7633 5.20562 13.5314 5.37938 13.7145 5.9675C13.897 6.555 13.3733 7.16813 12.3251 8.39375L12.0539 8.71063C11.7564 9.05875 11.607 9.23312 11.5401 9.44812C11.4733 9.66375 11.4958 9.89625 11.5408 10.3606L11.582 10.7837C11.7401 12.4194 11.8195 13.2369 11.3408 13.6C10.862 13.9631 10.142 13.6319 8.70327 12.9694L8.33015 12.7981C7.9214 12.6094 7.71702 12.5156 7.50015 12.5156C7.28327 12.5156 7.0789 12.6094 6.67015 12.7981L6.29765 12.9694C4.85827 13.6319 4.13827 13.9631 3.66015 13.6006C3.18077 13.2369 3.26015 12.4194 3.41827 10.7837L3.45952 10.3612C3.50452 9.89625 3.52702 9.66375 3.45952 9.44875C3.39327 9.23312 3.2439 9.05875 2.9464 8.71125L2.67515 8.39375C1.62702 7.16875 1.10327 6.55563 1.28577 5.9675C1.46827 5.37938 2.23765 5.205 3.77515 4.8575L4.17265 4.7675C4.60952 4.66875 4.82765 4.61937 5.00327 4.48625C5.1789 4.35312 5.29077 4.15125 5.51577 3.7475L5.72077 3.38Z" stroke="#FE7B07"/>
</g>
<defs>
<clipPath id="clip0_369_117">
<rect width="15" height="15" fill="white"/>
</clipPath>
</defs>
</svg>
