<svg width="36" height="36" viewBox="0 0 36 36" fill="none" xmlns="http://www.w3.org/2000/svg">
<path d="M16.7591 32.9037C15.5034 31.896 3.84303 20.5567 3.71269 20.4327C3.1977 19.9177 2.87345 19.3837 2.78444 18.8941C2.69225 18.3855 2.84802 17.9404 3.26128 17.5272C3.64594 17.1425 4.11642 16.9391 4.62187 16.9391C5.23858 16.9391 5.87119 17.2315 6.3989 17.7624L11.6855 22.8423C11.7777 22.9314 11.8985 22.9759 12.0161 22.9759C12.1401 22.9759 12.2609 22.9282 12.3531 22.836C12.5374 22.6516 12.5374 22.3528 12.3562 22.1684L3.91614 13.4518C3.07055 12.6062 2.67318 11.3123 3.67772 10.3078C4.06238 9.92313 4.53286 9.71968 5.03831 9.71968C5.65503 9.71968 6.28763 10.0121 6.81534 10.543L15.4493 18.9609C15.5415 19.0499 15.6623 19.0976 15.7831 19.0976C15.9039 19.0976 16.0279 19.0499 16.1201 18.9577C16.3045 18.7733 16.3077 18.4745 16.1233 18.2869L5.75357 7.65655C5.27355 7.17653 4.98427 6.60114 4.93341 6.04165C4.88572 5.47262 5.08599 4.94491 5.51515 4.51576C5.8998 4.1311 6.37029 3.92765 6.87574 3.92765C7.49245 3.92765 8.12506 4.22011 8.65277 4.74782L19.2291 15.0603C19.3213 15.1493 19.4421 15.197 19.5629 15.197C19.6837 15.197 19.8077 15.1493 19.8999 15.0571C20.0842 14.8727 20.0874 14.5739 19.903 14.3864L12.2227 6.49306C11.7395 6.00986 11.4502 5.43765 11.4025 4.87816C11.3549 4.30913 11.5551 3.78142 11.9843 3.35226C12.3689 2.96761 12.8394 2.76416 13.3449 2.76416C13.9616 2.76416 14.5942 3.05662 15.1219 3.58751C17.9384 6.35318 25.2913 13.5853 25.5393 13.8523C26.4834 14.504 26.6742 13.5185 26.7219 12.8795C26.7759 12.1357 25.9239 9.53848 26.4199 7.20196C27.2527 4.09614 29.6528 4.60477 29.7069 4.6302C31.023 5.24691 30.7718 6.16881 30.3045 8.02213L30.2568 8.3877C29.7673 10.8101 33.1306 17.9881 33.3786 18.5253C34.6978 21.4118 36.2174 27.2643 31.1851 32.2965C25.6696 37.812 18.8413 34.9859 16.7591 32.9037Z" fill="url(#paint0_radial_74_508)"/>
<path d="M23.8354 36.0003C20.453 36.0003 17.5761 34.3822 16.4412 33.26C15.4207 32.4271 8.98022 26.2091 3.73497 21.1196C3.52198 20.913 3.398 20.7954 3.38528 20.7795C2.79082 20.185 2.42206 19.5651 2.31716 18.9802C2.19636 18.3158 2.40299 17.715 2.92434 17.1905C3.40118 16.7136 3.9861 16.4625 4.62189 16.4625C5.36894 16.4625 6.11917 16.8058 6.73589 17.4257L12.0161 22.4993L3.57284 13.7826C2.60008 12.8099 2.11053 11.1982 3.34078 9.9711C3.81762 9.49425 4.40254 9.24312 5.03833 9.24312C5.78538 9.24312 6.53561 9.58644 7.15233 10.2063L15.78 18.6178L5.41345 7.99062C4.86031 7.43748 4.52016 6.76037 4.45976 6.08643C4.39936 5.36799 4.64732 4.70995 5.1782 4.17907C5.65505 3.70223 6.23997 3.45109 6.87576 3.45109C7.61963 3.45109 8.36986 3.79124 8.98975 4.41113L19.5629 14.7204L11.8826 6.82712C11.3263 6.27081 10.9861 5.5937 10.9289 4.91976C10.8685 4.2045 11.1165 3.54646 11.6473 3.01557C12.1242 2.53873 12.7091 2.2876 13.3449 2.2876C14.092 2.2876 14.8422 2.63092 15.4589 3.25082L17.7509 5.49833C21.8359 9.50379 25.25 12.8576 25.6156 13.2327C25.7936 13.3757 26.0257 13.4298 26.1242 13.3821C26.1878 13.3503 26.2578 13.2041 26.245 12.8957C26.226 12.3553 26.1497 11.6845 26.0702 10.9756C25.9113 9.55148 25.7459 8.07645 25.9526 7.10369C26.404 5.41567 27.2909 4.70041 27.9521 4.39206C28.8613 3.97244 29.7419 4.11867 29.9104 4.19814C31.5634 4.9738 31.236 6.27081 30.7846 8.07009L30.775 8.11459L30.7242 8.48653C30.3936 10.1141 32.0911 14.6123 33.7887 18.2777L33.8141 18.3285C34.949 20.8081 36.993 27.1692 31.5253 32.6369C29.0107 35.1451 26.2895 36.0003 23.8354 36.0003ZM4.62189 17.4162C4.24678 17.4162 3.89073 17.5719 3.59827 17.8644C3.29627 18.1664 3.19137 18.4589 3.25495 18.8085C3.32488 19.1932 3.60781 19.651 4.04968 20.096C4.05286 20.0992 4.18002 20.2232 4.39936 20.433C11.8444 27.6587 16.3395 31.9535 17.0579 32.532L17.0961 32.567C18.8508 34.3218 25.3708 37.4371 30.8481 31.9598C35.8931 26.9148 33.9953 21.0243 32.9431 18.7227L32.9208 18.675C31.8273 16.3163 29.3413 10.5942 29.7832 8.31169L29.8563 7.83485C30.3459 5.88934 30.3745 5.48243 29.5448 5.08189C29.3 5.03738 27.5452 4.82439 26.8745 7.32622C26.706 8.12413 26.8681 9.58327 27.0112 10.8707C27.0938 11.5987 27.1701 12.2885 27.1892 12.8639C27.221 13.7699 26.7918 14.1164 26.5311 14.2436C26.0003 14.5011 25.3677 14.2817 24.9735 13.9511L24.9321 13.913C24.7382 13.7032 20.1256 9.17954 17.0738 6.18498L14.7786 3.93111C13.9966 3.14591 12.9889 3.01557 12.3117 3.69269C11.9811 4.0233 11.8317 4.41113 11.8667 4.84029C11.9048 5.28852 12.1464 5.75582 12.5502 6.15955L20.2464 14.0529C20.6088 14.4216 20.6088 15.0256 20.24 15.3944C19.8872 15.7472 19.2641 15.7536 18.9017 15.4039L8.319 5.08824C7.53698 4.30622 6.52607 4.17589 5.85214 4.853C5.52153 5.18361 5.37212 5.57144 5.40709 6.0006C5.44841 6.44883 5.69001 6.91931 6.09056 7.31668L16.4634 17.9534C16.829 18.3222 16.8258 18.9262 16.4571 19.2949C16.1042 19.6478 15.4811 19.6541 15.1188 19.3045L6.48157 10.8835C5.69955 10.0951 4.68865 9.96792 4.01471 10.645C3.19137 11.4684 3.63006 12.4888 4.25313 13.1151L12.6996 21.8381C13.062 22.2068 13.0588 22.8077 12.69 23.1732C12.334 23.5293 11.7173 23.5325 11.3549 23.186L6.06831 18.106C5.62326 17.6578 5.11145 17.4162 4.62189 17.4162Z" fill="#EDA600"/>
<path d="M24.7795 13.5439C23.0343 17.1075 23.26 22.0953 25.8794 26.0976C26.1751 26.638 26.6805 26.3741 26.423 25.8178C23.26 19.0499 26.5756 14.1734 26.5756 14.1734L24.7795 13.5439Z" fill="#EDA600"/>
<path d="M17.9162 0.179735C18.8763 -0.0714009 19.8999 -0.0491482 20.8949 0.182914C21.8835 0.421335 22.8722 0.923607 23.6065 1.74377C24.325 2.55758 24.7668 3.54623 24.9163 4.58257C25.0561 5.60936 24.9258 6.66795 24.4394 7.54534C24.3822 6.55987 24.2105 5.65387 23.9212 4.81781C23.7718 4.40137 23.597 4.004 23.384 3.62889C23.1742 3.25695 22.9262 2.88819 22.6624 2.58619C22.1251 1.9663 21.3972 1.4831 20.5802 1.10799C19.76 0.720155 18.8667 0.434051 17.9162 0.179735Z" fill="#B0BEC5"/>
<path d="M18.1801 3.19327C18.7109 2.8563 19.3753 2.78636 20.0016 2.89763C20.6342 3.00889 21.2382 3.3236 21.715 3.75912C22.1887 4.20099 22.5257 4.75731 22.7355 5.33587C22.8372 5.62516 22.8881 5.93033 22.9358 6.22598C22.9517 6.53115 22.9517 6.83633 22.904 7.14151C22.6846 6.90945 22.513 6.67739 22.3508 6.45168C22.1633 6.23869 22.017 6.01299 21.8486 5.80636C21.518 5.39627 21.1969 5.02434 20.8504 4.69373C20.4943 4.37265 20.1192 4.08973 19.6837 3.84495C19.2514 3.59381 18.765 3.384 18.1801 3.19327Z" fill="#90A4AE"/>
<path d="M0.00607591 23.3354C0.454306 24.2128 0.921611 25.0266 1.46521 25.7451C2.00563 26.4635 2.62552 27.0739 3.34714 27.4713C3.69683 27.6652 4.11327 27.8337 4.52017 27.9608C4.93025 28.0911 5.35623 28.1802 5.79493 28.2406C6.67231 28.3486 7.59421 28.3296 8.57014 28.1802C7.81355 28.8382 6.80265 29.1879 5.77267 29.2642C4.72998 29.3341 3.67139 29.1084 2.72407 28.5743C1.77039 28.0307 1.07102 27.1661 0.632327 26.2474C0.193633 25.3223 -0.0416082 24.3273 0.00607591 23.3354Z" fill="#B0BEC5"/>
<path d="M3.01015 22.9634C3.31851 23.4974 3.62369 23.9266 3.95748 24.3017C4.28809 24.6768 4.64413 24.9852 5.03196 25.2649C5.42615 25.5351 5.85848 25.7736 6.32897 26.012C6.56421 26.1328 6.81534 26.2281 7.0633 26.368C7.3208 26.4793 7.58147 26.5969 7.85486 26.7654C7.56557 26.8735 7.26993 26.9371 6.96793 26.9847C6.66911 26.9975 6.36076 27.0133 6.05558 26.972C5.44522 26.8894 4.83486 26.6764 4.3008 26.3044C3.77628 25.9262 3.34076 25.4016 3.10234 24.8072C2.86074 24.2159 2.79081 23.5547 3.01015 22.9634Z" fill="#90A4AE"/>
<defs>
<radialGradient id="paint0_radial_74_508" cx="0" cy="0" r="1" gradientUnits="userSpaceOnUse" gradientTransform="translate(11.8369 10.8291) rotate(-45) scale(28.9307)">
<stop offset="0.3533" stop-color="#FFCA28"/>
<stop offset="0.8723" stop-color="#FFB300"/>
</radialGradient>
</defs>
</svg>
