<svg width="30" height="30" viewBox="0 0 30 30" fill="none" xmlns="http://www.w3.org/2000/svg">
<path d="M29.9 15C29.9 23.229 23.229 29.9 15 29.9C6.77096 29.9 0.1 23.229 0.1 15C0.1 6.77096 6.77096 0.1 15 0.1C23.229 0.1 29.9 6.77096 29.9 15ZM26.6391 15C26.6391 21.4281 21.4281 26.6391 15 26.6391C8.57189 26.6391 3.36087 21.4281 3.36087 15C3.36087 8.57189 8.57189 3.36087 15 3.36087C21.4281 3.36087 26.6391 8.57189 26.6391 15ZM15 26.8391C21.5386 26.8391 26.8391 21.5386 26.8391 15C26.8391 8.46143 21.5386 3.16087 15 3.16087C8.46143 3.16087 3.16087 8.46143 3.16087 15C3.16087 21.5386 8.46143 26.8391 15 26.8391ZM24.0304 15C24.0304 19.9874 19.9874 24.0304 15 24.0304C10.0126 24.0304 5.96957 19.9874 5.96957 15C5.96957 10.0126 10.0126 5.96957 15 5.96957C19.9874 5.96957 24.0304 10.0126 24.0304 15ZM15 24.2304C20.0978 24.2304 24.2304 20.0978 24.2304 15C24.2304 9.90217 20.0978 5.76957 15 5.76957C9.90217 5.76957 5.76957 9.90217 5.76957 15C5.76957 20.0978 9.90217 24.2304 15 24.2304ZM21.7478 15C21.7478 18.7267 18.7267 21.7478 15 21.7478C11.2733 21.7478 8.25217 18.7267 8.25217 15C8.25217 11.2733 11.2733 8.25217 15 8.25217C18.7267 8.25217 21.7478 11.2733 21.7478 15ZM15 21.9478C18.8372 21.9478 21.9478 18.8372 21.9478 15C21.9478 11.1628 18.8372 8.05217 15 8.05217C11.1628 8.05217 8.05217 11.1628 8.05217 15C8.05217 18.8372 11.1628 21.9478 15 21.9478ZM18.487 15C18.487 16.9258 16.9258 18.487 15 18.487C13.0742 18.487 11.513 16.9258 11.513 15C11.513 13.0742 13.0742 11.513 15 11.513C16.9258 11.513 18.487 13.0742 18.487 15ZM15 18.687C17.0363 18.687 18.687 17.0363 18.687 15C18.687 12.9638 17.0363 11.313 15 11.313C12.9638 11.313 11.313 12.9638 11.313 15C11.313 17.0363 12.9638 18.687 15 18.687Z" stroke="#9A6CF0" stroke-width="0.2"/>
</svg>
